<svg xmlns="http://www.w3.org/2000/svg" version="1.1" xmlns:xlink="http://www.w3.org/1999/xlink" viewBox="0 0 200 200"><rect width="200" height="200" fill="url('#gradient')"></rect><defs><linearGradient id="gradient" gradientTransform="rotate(45 0.5 0.5)"><stop offset="0%" stop-color="#010101"></stop><stop offset="100%" stop-color="#000000"></stop></linearGradient></defs><g><g fill="#ed0909" transform="matrix(3.7372262773722627,0,0,3.7372262773722627,30.11269799440447,126.57105419757592)" stroke="#0e5278" stroke-width="0.7"><path d="M3.65-14.22L6.28-8.05L8.90-14.22L12.60-14.22L8.02-5.11L8.02 0L4.54 0L4.54-5.11L-0.03-14.22L3.65-14.22ZM19.40 0L13.63 0L13.63-14.22L18.74-14.22Q21.48-14.22 22.92-13.21Q24.35-12.21 24.35-10.29L24.35-10.29Q24.35-9.19 23.84-8.41Q23.33-7.63 22.34-7.26L22.34-7.26Q23.46-6.96 24.05-6.16Q24.65-5.36 24.65-4.21L24.65-4.21Q24.65-2.12 23.33-1.07Q22.00-0.02 19.40 0L19.40 0ZM19.46-6.04L17.06-6.04L17.06-2.64L19.31-2.64Q20.23-2.64 20.73-3.06Q21.23-3.49 21.23-4.26L21.23-4.26Q21.23-6.04 19.46-6.04L19.46-6.04ZM17.06-11.57L17.06-8.29L18.85-8.29Q19.97-8.30 20.45-8.70Q20.93-9.10 20.93-9.88L20.93-9.88Q20.93-10.78 20.41-11.18Q19.89-11.57 18.74-11.57L18.74-11.57L17.06-11.57ZM37.43-14.22L37.43-11.57L33.16-11.57L33.16 0L29.74 0L29.74-11.57L25.55-11.57L25.55-14.22L37.43-14.22Z"></path></g></g></svg>