<?xml version="1.0" encoding="UTF-8" standalone="no"?>
<svg
   version="1.1"
   width="841.88977pt"
   height="595.27557pt"
   id="svg16"
   viewBox="0 0 841.88977 595.27557"
   sodipodi:docname="YBT Logo.cdr"
   xmlns:inkscape="http://www.inkscape.org/namespaces/inkscape"
   xmlns:sodipodi="http://sodipodi.sourceforge.net/DTD/sodipodi-0.dtd"
   xmlns="http://www.w3.org/2000/svg"
   xmlns:svg="http://www.w3.org/2000/svg">
  <defs
     id="defs16" />
  <sodipodi:namedview
     id="namedview16"
     pagecolor="#ffffff"
     bordercolor="#000000"
     borderopacity="0.25"
     inkscape:showpageshadow="2"
     inkscape:pageopacity="0.0"
     inkscape:pagecheckerboard="0"
     inkscape:deskcolor="#d1d1d1"
     inkscape:document-units="pt" />
  <g
     id="Layer1000">
    <g
       id="Layer1001">
      <path
         d="m 455.0192,310.3515 -4.5373,2.504 -5.8504,1.1897 h -53.3738 c -1.6094,0 -0.908,-2.9494 -0.908,-4.0867 v -22.0241 c 0,-0.8785 -0.5888,-2.4987 0.6814,-2.4987 h 52.919 l 8.6214,2.2814 c 1.1347,0.5807 3.1331,2.3216 3.9445,3.3208 0.7846,0.9684 0.7658,1.1709 1.3694,2.2654 0.3876,0.7041 0.4037,0.523 0.5754,1.2406 l 0.9335,4.2892 c 0,3.2833 0.0348,1.8227 -0.6264,4.595 -0.1703,0.7122 -0.1609,0.8825 -0.2575,1.5598 -0.2548,1.8067 -0.2401,0.4279 -1.1856,2.4478 -0.3233,0.6907 -0.2281,0.5297 -0.6814,1.1346 -0.4654,0.6183 -1.0086,1.2809 -1.6242,1.7812 z m -47.9069,-50.6176 c -0.845,1.242 0.2776,0.0389 -1.246,1.7061 l -5.0725,6.7355 c -0.2709,0.4118 -0.3112,0.4869 -0.5942,0.9966 -0.7376,1.3305 -0.9348,0.8449 -2.0252,2.5161 -0.3139,0.4802 -0.2763,0.5217 -0.6237,0.9657 l -6.9743,9.1498 c -0.2267,-0.9765 -0.1945,-1.0529 -0.224,-2.2734 -0.0282,-1.1239 -0.2173,-1.0649 -0.2347,-2.0507 l 0.232,-35.1842 c 0,-2.3941 -0.9133,-7.9467 0.6814,-7.9467 h 47.4683 c 1.6766,0 4.1095,0.0429 5.3099,0.5942 2.2278,1.022 2.5242,0.621 3.4121,1.1293 0.0603,0.0348 0.2146,0.1462 0.2709,0.1837 1.6188,1.0837 2.5859,1.6698 3.5931,3.2189 2.2989,3.5328 1.7221,4.2812 1.7221,9.178 0,1.8455 -0.5311,2.0816 -1.1038,3.6642 -0.4855,1.3372 -2.3082,2.9976 -3.4952,3.7715 -0.8316,0.5432 -1.2554,0.3608 -2.1178,0.8342 -1.7704,0.9738 -2.5751,0.727 -4.6889,1.2165 -0.9201,0.2133 -1.4311,0.4614 -2.4437,0.5083 -7.5832,0.3568 -16.1576,-0.004 -23.8522,-0.004 -2.9104,0 -6.812,-0.6438 -7.9936,1.0904 z m 77.9461,7.083 c 0.5687,-0.7739 3.3638,-1.5585 4.4864,-1.871 1.36,-0.3796 2.6892,-1.5759 3.9821,-2.15 1.2835,-0.57 2.6704,-1.7529 3.6092,-2.7495 4.1698,-4.43 2.2076,-2.1298 5.5392,-6.9502 0.7028,-1.0166 1.1468,-2.1633 1.5089,-3.2605 0.1677,-0.5043 0.2079,-0.4828 0.4386,-0.9241 l 1.5504,-4.8069 c 0.11,-0.8852 0.1248,-2.0078 0.2951,-2.8836 0.1596,-0.8101 0.621,-1.1078 0.621,-2.331 0,-1.647 0.0818,-3.7098 -0.1878,-5.263 -0.1515,-0.8758 -0.3433,-1.2621 -0.4372,-1.8321 -0.2119,-1.2781 -0.0912,-2.7133 -0.3407,-3.974 -0.1194,-0.5968 -0.4305,-0.9134 -0.6572,-1.6135 -0.405,-1.2433 -0.5177,-2.2264 -1.1387,-3.4026 -0.9026,-1.7141 -0.908,-2.3552 -2.2653,-4.3201 -2.2211,-3.2162 -3.3571,-4.0907 -6.2769,-6.6672 l -8.7286,-4.4421 -7.2225,-1.635 c -1.6551,-0.0925 -2.2036,-0.4037 -3.5757,-0.7403 -3.5193,-0.8638 -84.8722,-0.3903 -85.3913,-0.2669 -0.8838,0.2106 -1.5155,1.132 -1.9541,1.8415 -1.1615,1.8817 -2.7482,3.4845 -4.0156,5.2938 -0.3098,0.4399 -0.452,0.7993 -0.7766,1.2674 l -2.0266,2.5148 c -0.0375,0.0563 -0.1421,0.2186 -0.181,0.2723 l -0.5969,0.7658 c -0.6625,0.8879 -1.2044,1.9904 -2.0091,2.7602 -0.9469,0.904 -1.5478,2.3029 -2.4129,3.2645 -2.1928,2.4411 -2.9842,4.0961 -4.0625,5.4749 -0.0295,0.0376 -0.0738,0.0872 -0.1046,0.122 l -12.1971,15.9605 c -0.5525,0.735 -0.9281,1.5639 -1.4659,2.1688 l -6.4231,8.5637 c -0.5794,0.9066 -1.356,1.4592 -2.2036,2.7937 l -1.1494,1.5746 c -0.4856,0.7336 -1.1065,1.5102 -1.6967,2.1647 -0.6451,0.7162 -1.0488,1.3265 -1.5155,2.1165 -0.727,1.2272 -1.5518,1.8079 -2.4518,3.2256 -0.3192,0.5029 -0.0912,0.1408 -0.3889,0.519 -0.1811,0.2294 -0.2643,0.3206 -0.3997,0.5097 -1.0703,1.4955 -2.6798,2.8099 -2.6798,4.8136 v 67.8898 c 0,0.92 0.2455,2.044 1.136,2.044 h 133.0917 c 1.9823,0 2.5966,-0.7699 4.3134,-0.912 4.3495,-0.3582 4.2717,-1.0475 6.6001,-1.348 1.3573,-0.1743 1.8629,-0.6344 4.0223,-1.2004 l 6.1991,-2.8849 c 0.3232,-0.1864 0.5861,-0.283 0.8879,-0.4748 l 1.4981,-1.0006 c 2.3364,-1.1226 3.8346,-2.838 5.6077,-4.6111 3.4133,-3.412 2.4101,-2.9439 4.6486,-5.798 0.3702,-0.4735 0.2615,-0.3702 0.4963,-0.8651 l 3.3704,-8.211 c 0.2106,-1.0314 0.2589,-1.0676 0.5768,-1.9206 l 1.2983,-9.1457 c -0.0363,-3.1774 0.6773,-6.8255 -0.4587,-9.9867 -0.5137,-1.4284 -0.4534,-3.168 -1.0341,-4.642 -0.4024,-1.0193 -0.5969,-1.9488 -1.0059,-2.8541 -1.0462,-2.3136 -2.5524,-5.5406 -4.257,-7.3244 -3.9084,-4.0853 -4.8405,-5.8839 -10.7995,-8.5033 -0.6358,-0.279 -0.8665,-0.5137 -1.352,-0.6934 l -7.2224,-2.3136 c -1.4512,-0.3434 -1.9609,-0.0228 -2.7147,-1.1481 z"
         style="fill:#000200;fill-rule:evenodd"
         id="path1" />
      <path
         d="m 227.306,204.803 c -1.026,-0.0845 -1.6484,-0.1985 -2.9802,-0.1985 l -52.011,0.1114 c -1.4821,0.004 -3.6052,-0.3246 -4.9961,0.342 1.5371,3.4402 0.4949,1.7596 2.6865,4.5802 l 7.7053,10.2335 c 2.4826,2.8742 4.4407,6.0905 6.8858,9.0103 l 8.0138,10.3797 c 2.1231,2.6046 3.7728,5.5486 5.9992,8.0795 l 5.8209,7.5779 c 0.5486,0.8315 0.794,1.25 1.4391,1.9675 l 11.4849,15.0847 c 0.5405,0.6357 0.9428,1.0368 1.419,1.7597 1.1467,1.7436 2.6086,3.1947 3.6897,4.9397 0.2387,0.3849 0.3916,0.5727 0.6598,0.9294 0.5017,0.6666 0.8866,1.1562 1.3963,1.7825 1.5102,1.8563 6.1655,8.4457 7.2425,9.5616 0.5647,0.5847 1.0019,1.1319 1.4083,1.7717 0.9268,1.4606 1.7825,2.3753 2.8997,3.6857 0.5834,0.6853 0.8155,1.3077 1.3587,2.0467 1.313,1.7838 3.7111,3.7648 3.9606,6.0314 0.5512,5.0376 0.1971,25.7983 0.1971,32.9524 0,2.5255 -0.6987,5.2227 1.3627,5.2227 h 61.0951 c 0.8343,0 1.0985,-0.3528 1.5907,-0.6814 v -32.9228 c 0,-3.9714 -0.7148,-5.0202 1.985,-8.0057 l 7.0387,-9.3121 c 0.5674,-0.629 0.9751,-1.1937 1.5223,-1.8844 l 22.7149,-29.9668 c 1.7516,-2.6771 3.9002,-4.8257 5.7136,-7.4585 l 2.8031,-3.7823 c 1.466,-2.2787 3.5033,-4.3147 4.933,-6.6484 1.0113,-1.6524 2.3766,-3.0526 3.5475,-4.6272 l 5.326,-7.1648 c 0.3621,-0.4815 0.0523,-0.0885 0.3138,-0.3661 1.0368,-1.1012 1.8684,-2.5443 2.83,-3.7554 l 8.4644,-11.2917 c 0.4748,-0.6425 0.8343,-1.2179 1.3439,-1.8362 0.554,-0.6706 0.9764,-1.1789 1.5169,-1.8897 0.5808,-0.7645 0.786,-1.1562 1.2688,-1.9086 0.9791,-1.529 2.264,-1.922 2.264,-4.0947 -0.9657,-0.2254 -1.7382,-0.4534 -2.952,-0.4534 h -40.8816 c -4.1511,0 -8.3532,-0.2065 -12.5002,0.007 -2.2787,0.1167 -3.9941,-0.4104 -5.5178,1.5062 l -6.4552,8.5315 c -0.4882,0.5432 -0.7565,0.7229 -1.1951,1.3037 -0.3634,0.4801 -0.6652,0.8986 -1.0676,1.4311 l -3.8224,5.0335 c -0.1757,0.2669 -0.2522,0.4547 -0.4265,0.7082 -0.3984,0.5781 -0.723,0.7484 -1.1736,1.3251 -0.4185,0.5365 -0.6518,0.9134 -1.0716,1.4257 l -8.7126,11.2703 c -1.246,1.9877 -3.1344,3.6454 -4.375,5.6183 -0.5258,0.8356 -0.4145,0.6841 -1.0931,1.4043 -1.191,1.2688 -2.1715,2.9185 -3.2015,4.2919 l -7.5927,9.8928 c -1.03,1.2514 -2.2237,3.0204 -3.5716,3.9231 -1.3104,-0.6934 -1.8536,-1.9716 -2.8622,-3.0419 -0.0322,-0.0349 -0.0791,-0.0818 -0.1113,-0.1167 -0.1328,-0.1408 -0.1167,-0.1086 -0.3272,-0.3527 -1.0878,-1.2594 -1.7007,-2.5792 -2.7804,-3.8064 -1.7476,-1.9864 -1.8066,-2.374 -2.9681,-3.8439 -0.5311,-0.6706 -0.9871,-1.1816 -1.5558,-1.8509 -0.5097,-0.5995 -0.8892,-1.1736 -1.3681,-1.812 l -3.0553,-3.7554 c -0.975,-1.2152 -1.6805,-2.6516 -2.7454,-3.8413 -1.6725,-1.8669 -2.9883,-4.1229 -4.6943,-5.9791 -1.0166,-1.1065 -1.6618,-2.3176 -2.6073,-3.5234 -0.5754,-0.7336 -1.0904,-1.0461 -1.635,-1.7704 -0.3218,-0.4278 -0.4238,-0.68 -0.6947,-1.1226 -0.8275,-1.3506 -1.9998,-2.3981 -2.9373,-3.6481 l -12.3579,-16.0275 c -0.0282,-0.0376 -0.0698,-0.0899 -0.098,-0.1288 -1.1668,-1.5625 -1.2071,-2.6623 -3.5059,-2.8528 z"
         style="fill:#000200;fill-rule:evenodd"
         id="path2" />
      <path
         d="m 500.0492,205.0579 c 0.1167,1.4176 3.282,3.4992 4.4475,4.4085 0.6652,0.5218 1.0408,0.9832 1.6497,1.5304 1.8697,1.6805 3.1478,4.0545 4.5467,6.1253 0.4721,0.6974 0.2066,0.1113 0.5714,1.018 l 0.9804,1.9716 c 0.3675,0.8141 0.3756,1.415 0.7645,2.1875 0.6585,1.3023 0.4037,0.5888 0.6921,2.26 0.1891,1.0904 0.5418,1.3613 0.7873,2.3914 l 1.2312,11.0301 c 0,2.1084 -0.6813,3.1479 -0.6813,6.5854 0,1.7127 4.3643,1.1347 6.132,1.1347 h 18.1708 c 1.2715,-0.007 2.9507,-0.33 2.9507,0.9093 l 10e-4,59.715 c 0.001,1.6846 -0.1944,2.7321 -0.2347,4.08 -0.2266,7.5645 0.007,17.2427 0.007,25.2109 0,2.0856 -0.6612,7.0387 1.3627,7.0387 h 55.8711 c 0.8342,0 1.0985,-0.3528 1.5907,-0.6814 0,-8.2739 -0.3635,-95.4557 0.2267,-96.0445 1.0944,-1.0945 37.8706,0.5713 39.873,-0.5539 0.6746,-0.3796 1.2688,-1.1535 1.6953,-1.7114 l 2.0413,-2.9547 c 0.2803,-0.3649 0.452,-0.6076 0.7779,-1.0395 0.5674,-0.7497 0.837,-1.246 1.3936,-2.0132 l 5.499,-7.8984 c 0.5391,-0.8061 0.9227,-1.1373 1.4605,-1.9461 0.4976,-0.7484 0.8544,-1.3586 1.3211,-2.0842 0.5177,-0.8074 0.9308,-0.9067 1.517,-1.8898 1.1708,-1.9689 1.702,-2.3512 2.7776,-4.0344 0.5204,-0.8155 0.8114,-1.2151 1.4338,-1.9729 l 4.8498,-6.9583 c 0.7283,-1.1279 3.2686,-4.2261 3.2686,-5.3595 0,-0.9428 -2.1715,-0.908 -3.6334,-0.908 l -160.309,0.1248 c -2.6623,-0.11 -1.9032,-0.3997 -5.0336,0.3286 z"
         style="fill:#000200;fill-rule:evenodd"
         id="path3" />
      <path
         d="m 391.4857,423.7138 c 1.1629,0 1.5612,-0.4158 2.496,-0.684 4.0452,-1.1548 7.7053,-2.3123 11.9355,-3.0526 2.2506,-0.393 8.7542,-1.0368 10.6949,-0.2669 0.8222,0.3246 0.6424,0.3903 0.9925,1.0515 0.2937,2.2667 -8.9405,5.1261 -10.8384,5.5137 l -13.8829,2.2412 c -4.2356,0.4252 -3.235,1.0636 -7.0696,0.1865 -2.7937,-0.6398 -0.8557,-2.8971 0.8316,-4.1525 1.9246,-1.4324 2.0011,-0.8369 4.8404,-0.8369 z m -1.5906,-2.7253 c 0.2762,-0.3756 -0.0363,0.0362 0.3259,-0.3555 l 0.2199,-0.2347 c 0.0309,-0.0335 0.0778,-0.0831 0.1087,-0.118 0.2146,-0.2334 0.2977,-0.3393 0.5391,-0.5955 l 3.6656,-3.8292 c 0.0322,-0.0335 0.0791,-0.0818 0.11,-0.1167 0.0965,-0.1046 0.1971,-0.2199 0.3232,-0.3581 0.232,-0.2561 0.3098,-0.3406 0.5499,-0.5847 0.5714,-0.5821 0.5512,-0.5754 1.2634,-1.0086 2.4665,-1.4995 8.0661,-2.8608 10.7392,-3.3423 1.1306,-0.2026 8.1022,-1.2943 8.9553,-0.5821 -0.0939,1.136 0.2239,0.3232 -0.4346,0.9281 -1.0569,0.9724 -7.4585,3.7433 -9.0063,4.3911 -2.5563,1.069 -4.1792,1.8831 -6.9662,2.7992 -0.8557,0.2816 -1.1562,0.4761 -1.8134,0.6853 l -7.0749,2.4907 c -1.0005,0.2494 -0.6089,0.3058 -1.5048,-0.169 z m 19.1338,-4.0317 c 2.0185,-1.3573 1.702,-0.7457 4.2556,-1.875 2.3861,-1.0556 7.1313,-2.6074 8.0997,-5.09 1.1722,-3.0056 -2.8474,-2.7763 -5.5983,-2.6274 -5.3139,0.287 -16.9114,2.2036 -21.4702,3.966 -0.6223,0.24 -0.9107,0.4949 -1.4928,0.7779 -0.6236,0.3031 -0.8677,0.4493 -1.533,0.7376 -5.165,2.2359 -0.3527,3.1908 -3.6052,6.3869 l -5.5687,5.3314 c -2.213,2.2009 -2.441,2.3592 -2.441,4.1443 0,1.4405 4.1926,1.8536 5.0161,2.0239 3.0258,0.6277 4.9156,-0.0738 7.704,-0.2052 3.5421,-0.1663 6.2729,-0.7175 9.6393,-1.4901 l 10.8934,-2.9601 c 2.2894,-0.9053 8.5368,-2.7897 8.5368,-5.3152 0,-1.6229 -0.7135,-1.757 -2.0373,-2.2774 -2.2519,-0.8852 -8.3692,-1.356 -10.6814,-1.356 z"
         style="fill:#000200;fill-rule:evenodd"
         id="path4" />
      <path
         d="m 326.7559,425.5298 c -0.46,-1.9742 1.3533,-2.5308 4.2074,-3.9686 1.1749,-0.5928 5.102,-2.3887 6.014,-2.3887 2.1795,0 0.4815,1.588 -0.5204,2.4316 -0.9053,0.7618 -1.6537,1.2084 -2.7293,1.8133 -2.8595,1.6081 -4.186,2.1124 -6.9717,2.1124 z m -4.3267,13.1574 c 0.8302,-0.055 1.5021,-0.2777 2.2264,-0.499 0.7604,-0.2333 1.2004,-0.2602 1.9447,-0.5539 4.3751,-1.7261 3.5958,-1.3412 6.9569,-3.4885 l 5.6345,-4.8123 c 1.4552,-1.4954 3.6897,-4.6366 3.6897,-6.7557 0,-3.7581 0.4359,-6.1307 -5.2227,-6.1307 -5.4199,0 -15.2175,6.4674 -15.2175,9.5374 0,3.4617 8.4041,0.908 9.3322,0.7015 2.374,-0.5271 4.9759,-2.142 4.9759,-0.4748 0,3.007 -5.57,6.3493 -8.1237,7.7723 -3.6186,2.0159 -13.0568,5.6506 -17.4855,1.9367 -0.806,-0.6759 -0.7739,-0.9388 -1.0488,-2.1312 -0.7886,-3.4268 -3.6535,-1.0072 -2.8608,1.2514 0.7913,2.2573 3.8573,3.5824 5.8973,3.6602 2.4504,0.0939 3.29,0.4533 4.316,0.4533 z"
         style="fill:#000200;fill-rule:evenodd"
         id="path5" />
      <path
         d="m 524.1227,430.2979 c 1.2729,0 2.3498,-1.3292 3.0567,-2.1674 l 8.7568,-9.8634 c 0.3916,-0.3259 0.735,-0.5981 1.1346,-0.9093 0.4815,-0.3755 0.7203,-0.6827 1.2313,-1.0394 5.3756,-3.7434 6.3118,-2.6033 11.6176,-3.3719 3.2176,-0.4654 5.1328,-0.3594 8.0326,-0.5982 l 13.8628,-1.1266 c 0.9724,-0.0831 0.7444,-0.2521 1.5933,-0.4506 -0.0442,-1.9904 -1.0515,-1.5116 -2.5053,-1.3801 -1.4338,0.1301 -5.9886,-0.005 -8.3008,0.3406 l -23.3962,1.8147 c -1.4968,0.2079 -2.3485,0.2548 -3.9392,0.3755 -4.8552,0.3675 -10.2992,1.3064 -15.0055,1.8 -1.6202,0.1703 -5.6895,0.4788 -6.5854,1.8173 0.5606,0.8383 0.6411,0.8624 1.8978,1.0582 l 8.2284,-0.4707 c 2.3847,-0.3407 8.6441,-1.2554 10.542,-0.8142 -0.2146,0.5929 -1.808,2.0145 -2.48,2.7428 l -2.1177,2.1969 c -1.9864,1.9904 -6.9864,6.344 -6.9864,8.4564 0,0.8222 -0.1476,1.5894 1.3626,1.5894 z"
         style="fill:#000200;fill-rule:evenodd"
         id="path6" />
      <path
         d="m 624.8964,417.7427 c 1.2246,-0.1609 2.5993,-0.1596 4.1565,-0.1596 -0.2763,1.0354 -1.3708,1.3412 -2.822,1.9475 -0.6558,0.2749 -0.979,0.4506 -1.6014,0.6692 l -15.4199,5.4749 c -0.9912,0.3044 -2.5054,1.0099 -3.3276,1.4405 -1.3801,0.7242 -2.2667,1.0354 -2.2667,2.2747 0,1.3385 1.9448,0.8007 3.3102,1.0045 2.8782,0.4292 5.7498,-0.1126 8.0432,-0.0992 5.9671,0.0335 10.3891,-0.4306 15.9015,-0.6773 2.2694,-0.102 2.496,-0.275 2.952,-1.136 -0.4681,-0.6988 -1.0032,-0.9697 -2.0239,-1.1736 l -2.2894,-0.1918 c -1.2527,-0.0282 -1.4351,0.2226 -2.7187,0.2387 -0.9375,0.0121 -2.0319,-0.0724 -2.9493,0.003 l -8.1881,0.6881 c -1.2621,0 -1.4351,-0.2455 -2.7254,-0.2455 0.3675,-0.5016 0.7819,-0.5526 1.4351,-0.8356 3.8118,-1.6537 17.7953,-6.0475 20.6601,-8.8627 0.3957,-0.389 0.617,-0.7176 0.617,-1.4271 0,-1.5558 -3.0888,-1.5893 -4.3161,-1.5893 l -7.7911,0.3849 c -1.2205,0.2133 -2.5805,0.2884 -3.6387,0.4493 -1.7583,0.2669 -2.1379,0.1931 -1.7422,1.8898 2.1271,0.4962 4.6392,0.2106 6.7449,-0.0671 z"
         style="fill:#000200;fill-rule:evenodd"
         id="path7" />
      <path
         d="m 202.5216,434.8392 c 1.0663,0 1.5988,-0.6344 2.1138,-1.2929 0.6183,-0.7913 0.7404,-1.0059 1.4646,-1.7141 l 3.2927,-3.2927 c 2.9198,-2.9533 4.3174,-4.0223 7.3003,-6.7798 3.0096,-2.7831 7.1473,-6.2649 9.8512,-8.9969 0.6411,-0.6478 0.9335,-1.1293 1.5907,-1.816 1.3466,-1.4083 1.1601,-3.1277 0.0509,-3.1277 -2.9855,0 -5.393,3.577 -7.5617,5.3823 -0.8987,0.7484 -0.8356,0.6089 -1.6323,1.5477 -0.3098,0.3662 -0.1583,0.1757 -0.4332,0.4735 -3.8869,4.2034 -3.8627,4.9008 -8.2525,1.6175 l -8.4121,-5.896 c -1.7825,-1.0864 -2.2305,-0.4211 -2.779,0.0536 0.1837,0.3461 0.291,0.676 0.5579,1.0328 l 0.5499,0.5848 c 0.0335,0.0321 0.0832,0.0777 0.118,0.1099 l 4.811,3.5905 c 0.7376,0.4989 1.0595,0.6156 1.7838,1.1682 4.3683,3.3342 6.293,2.893 2.0051,7.1983 -2.0909,2.1003 -8.9177,5.4547 -8.9177,8.113 0,1.9434 1.1199,2.044 2.4986,2.044 z"
         style="fill:#000200;fill-rule:evenodd"
         id="path8" />
      <path
         d="m 441.6795,442.1046 c 0.6598,0 1.9273,-1.2795 2.4088,-1.6779 l 14.9183,-9.6071 c 0.5325,-0.3407 0.6344,-0.3004 1.2018,-0.6156 l 4.3951,-2.8716 c 0.4654,-0.3004 0.5178,-0.3956 1.0757,-0.7417 l 8.4483,-5.6317 c 2.1326,-1.5532 2.8635,-5.157 -4.6084,-0.0644 -1.8294,1.2473 -5.617,3.8198 -7.716,4.1055 -2.1393,0.2923 -4.8217,-2.8837 -6.1763,-4.3322 l -0.6814,-0.6813 c -0.8409,-0.7913 -1.702,-1.7463 -2.905,-1.8777 -0.6371,-0.0698 -1.2769,0.1274 -1.2769,0.8369 0,3.3061 6.5787,5.9 7.9494,7.9467 -0.6652,0.7645 -6.3319,4.2262 -7.7053,5.0121 -0.3997,0.228 -0.8543,0.4359 -1.3103,0.7337 -0.4628,0.3018 -0.7645,0.5096 -1.246,0.798 l -5.153,3.2484 c -0.8168,0.6143 -1.533,1.191 -2.3055,1.7825 -2.1084,1.6122 -2.252,3.6374 0.6867,3.6374 z"
         style="fill:#000200;fill-rule:evenodd"
         id="path9" />
      <path
         d="m 563.1884,440.9699 c 0,1.0408 1.6698,1.3479 2.2894,1.1427 0.9831,-0.3272 1.474,-1.0005 2.1956,-1.6537 l 4.536,-2.9574 c 2.6502,-1.9125 3.7795,-2.3444 6.018,-3.7487 l 10.365,-6.6658 c 0.3755,-0.2616 0.6947,-0.4426 1.1051,-0.7122 1.8603,-1.2245 2.3646,-1.3546 4.5374,-2.9574 0.9925,-0.7323 5.0644,-3.0217 5.0644,-4.2449 0,-3.0298 -6.3587,2.0051 -7.6476,2.7977 -0.6425,0.3957 -0.9214,0.6183 -1.5008,0.9979 -0.5392,0.3527 -1.0583,0.5633 -1.643,0.8544 -3.2806,1.6309 -4.5307,1.9555 -7.7268,-1.576 -6.8831,-7.61 -7.4786,-2.901 -4.7841,-0.4399 l 4.3804,3.341 c 0.9778,0.6062 1.3694,0.7631 1.8884,1.7449 -0.574,0.857 -1.3613,1.2031 -2.3417,1.7463 -0.8678,0.4801 -1.7262,0.9791 -2.5524,1.5343 -0.5378,0.3622 -0.6572,0.4829 -1.2231,0.8222 -0.4319,0.2575 -0.7578,0.4493 -1.2782,0.7645 -2.3029,1.3935 -11.682,6.4794 -11.682,9.2101 z"
         style="fill:#000200;fill-rule:evenodd"
         id="path10" />
      <path
         d="m 255.4407,427.8005 c -2.7964,0 3.6025,-4.0344 4.4448,-4.6393 0.0389,-0.0281 0.0912,-0.0684 0.1301,-0.0965 1.0086,-0.7082 3.6012,-2.0427 3.6012,-3.4376 0,-4.1832 -8.8588,3.1224 -10.1182,4.1873 -1.993,1.6846 -2.8273,2.3391 -2.8273,4.2128 0,1.0461 2.146,2.044 3.4067,2.044 2.2345,0 3.0459,-0.1623 5.0001,-0.6787 1.8777,-0.4962 5.161,-1.9917 7.2922,-2.6998 1.2004,-0.397 2.7817,-1.2782 3.6065,-0.9362 0.8758,0.2347 0.7055,0.5445 1.1454,1.3533 1.6564,3.0405 3.8775,3.1599 6.3574,3.18 1.9689,0.0161 1.4458,0.5486 4.2986,0 0.8611,-0.165 1.0622,-0.1448 1.1441,-1.1266 -2.4008,-1.1521 -5.1208,0.4332 -7.4653,-1.1655 -1.7878,-1.2192 -1.2446,-2.3096 0.5151,-4.194 l 1.4109,-1.3131 c 0.0336,-0.0335 0.0805,-0.0804 0.114,-0.114 0.7256,-0.7524 1.5639,-1.5933 1.5639,-2.5228 0,-3.3732 -4.1055,-0.2817 -6.7048,1.0166 -4.2369,2.1165 -5.8208,3.2874 -10.7149,5.1812 z"
         style="fill:#000200;fill-rule:evenodd"
         id="path11" />
      <path
         d="m 288.373,428.9365 c 2.0614,0 6.863,-2.445 9.5454,-3.6266 l 6.1186,-2.7388 c 0.5405,-0.2374 1.0663,-0.4278 1.6189,-0.6518 0.735,-0.2978 0.5445,-0.33 1.4337,-0.6103 1.238,-0.3889 2.2157,-0.6371 3.3638,-0.9522 1.808,-0.4936 4.1511,-1.2983 6.0824,-0.2763 -0.2521,1.081 -0.9951,2.103 -1.655,2.8863 -0.7726,0.9187 -1.525,1.3023 -2.378,2.1633 -0.9013,0.9107 -1.411,1.3439 -2.1111,2.4344 -0.8396,1.3063 -0.7296,2.7334 0.2388,2.7334 2.1459,0 1.4471,0.0536 1.8736,-0.625 l 0.2254,-0.4547 c 0.9455,-1.812 1.997,-2.6744 3.4093,-4.0854 l 2.1192,-2.1955 c 1.7409,-1.8992 1.9327,-2.6355 1.4579,-4.6728 -2.653,-1.2729 -10.086,0.401 -12.5404,1.0863 l -8.3545,2.319 c 0.1436,-0.3004 0.1744,-0.4117 0.3434,-0.7913 0.3755,-0.8436 0.338,0.1462 0.338,-0.798 0,-2.3351 -2.213,-1.7168 -3.3544,-0.6277 l -6.0543,5.3005 c -1.2272,0.9495 -5.3045,4.1832 -1.7207,4.1832 z"
         style="fill:#000200;fill-rule:evenodd"
         id="path12" />
      <path
         d="m 551.8323,427.5738 c 0,-1.7341 4.1551,-3.754 5.566,-4.426 l 5.3381,-2.1553 c 1.415,-0.6438 7.2654,-1.0596 7.2654,0.904 0,1.6899 -4.4341,3.7943 -5.8089,4.4112 -2.0037,0.9013 -12.3606,5.0792 -12.3606,1.2661 z m 7.4947,2.7241 c 3.6548,0 13.1721,-3.7917 13.1721,-7.9468 0,-1.7368 0.0778,-2.1446 -1.643,-2.8983 -2.6395,-1.1548 -5.1918,-0.735 -8.8037,-0.735 -2.9682,0 -10.5045,3.8077 -12.5284,6.3211 -5.1489,6.3923 6.5975,5.259 9.803,5.259 z"
         style="fill:#000200;fill-rule:evenodd"
         id="path13" />
      <path
         d="m 428.0513,427.5738 c 0,-2.563 11.2006,-7.0387 12.9468,-7.0387 5.1852,0 2.4866,-0.1099 5.4507,0.6814 0,1.6752 -0.1998,1.5786 -1.2326,2.4008 -0.4707,0.3742 0.047,0.003 -0.519,0.3889 -2.7951,1.9059 -8.3933,4.316 -11.7383,4.8405 -1.816,0.2843 -4.9076,0.7604 -4.9076,-1.2729 z m 7.2681,2.7241 c 3.0888,0 6.4124,-1.3641 8.3933,-2.5068 2.5913,-1.4941 5.2335,-3.0915 5.2335,-6.1213 0,-2.095 -3.2096,-2.952 -4.7694,-2.952 -5.9979,0 -9.5508,-0.2683 -15.3462,3.9579 -2.6006,1.8965 -3.9593,2.1782 -3.9593,5.5795 0,2.724 8.2686,2.0427 10.4481,2.0427 z"
         style="fill:#000200;fill-rule:evenodd"
         id="path14" />
      <path
         d="m 226.8232,427.5738 c 0,-1.4686 3.062,-2.9426 4.1323,-3.5904 2.3337,-1.4096 4.4984,-1.9676 6.9595,-3.0311 1.305,-0.5647 7.3056,-0.9402 7.3056,0.7175 0,1.6497 -1.4632,2.1661 -3.1666,3.1921 -2.5282,1.5223 -5.4198,2.6918 -8.2337,3.5757 -1.0274,0.3219 -6.9971,1.7905 -6.9971,-0.8638 z m 8.1774,2.7241 c 3.0258,0 8.282,-2.6449 10.6077,-4.6071 2.3833,-2.0078 3.1961,-4.9612 0.4345,-6.2045 -2.5778,-1.1601 -5.4266,-0.7685 -8.7716,-0.7685 -2.9064,0 -7.9869,2.7656 -10.3166,4.4448 -6.4982,4.6835 -2.5268,7.1353 0.5499,7.1353 z"
         style="fill:#000200;fill-rule:evenodd"
         id="path15" />
    </g>
    <path
       d="m 614.4577,178.8813 v -23.8736 0 h -0.1864 c -2.4987,0 -4.4327,0.6317 -5.8168,1.9031 -1.3748,1.2648 -2.201,3.1761 -2.4759,5.727 h -1.4727 v -4.7519 -4.7533 0 h 13.6107 v 0 h 13.6107 v 0 4.7533 4.7519 h -1.2943 c -0.275,-2.5509 -1.1079,-4.4622 -2.492,-5.727 -1.3761,-1.2714 -3.3249,-1.9031 -5.8236,-1.9031 h -0.342 v 0 23.8736 c 0,1.3238 0.275,2.2533 0.8329,2.7965 0.5513,0.5432 1.5022,0.8181 2.8568,0.8181 h 0.4158 v 1.2943 h -7.653 -7.653 v -1.2943 h 0.3943 c 1.2863,0 2.1862,-0.2749 2.7066,-0.8248 0.5204,-0.5365 0.7819,-1.466 0.7819,-2.7898 z m 24.9453,-1.0931 c 0,1.6283 0.275,2.7965 0.8329,3.4952 0.5499,0.7069 1.5022,1.1079 2.8555,1.2125 h 0.4171 v 1.2943 h -5.0202 -5.0201 v -1.2943 h 0.4157 c 1.3319,-0.1046 2.2694,-0.5056 2.8193,-1.2125 0.5499,-0.6987 0.8262,-1.8669 0.8262,-3.4885 v -20.0807 c 0,-1.0863 -0.2763,-1.8817 -0.8343,-2.3726 -0.5499,-0.4909 -1.5021,-0.7953 -2.8554,-0.9147 h -0.4158 v -1.2943 h 5.8531 5.8597 v 0 l 8.7099,21.2194 h 0.008 v 0 l 9.1927,-21.2194 v 0 h 5.5405 5.5339 v 1.2943 h -0.4091 c -1.3399,0.1341 -2.276,0.4614 -2.8273,1.0046 -0.5499,0.5351 -0.8248,1.4056 -0.8248,2.61 v 20.8398 c 0,1.3238 0.2749,2.2533 0.8329,2.7965 0.5499,0.5432 1.5021,0.8181 2.8554,0.8181 h 0.4171 v 1.2943 h -7.7428 -7.7428 v -1.2943 h 0.4171 c 1.3318,0 2.268,-0.2749 2.8192,-0.8181 0.5499,-0.5432 0.8249,-1.4794 0.8249,-2.7965 V 158.362 h 0.008 l -11.0825,25.4282 h -0.5874 -0.5875 L 639.403,156.7915 v 0 z"
       style="fill:#1b1918;fill-rule:evenodd"
       id="path16" />
  </g>
</svg>
