<svg width="714" height="348" viewBox="0 0 714 348" fill="none" xmlns="http://www.w3.org/2000/svg">
<g clip-path="url(#clip0_1_2)">
<path fill-rule="evenodd" clip-rule="evenodd" d="M409.48 155.403L403.024 159.061L394.699 160.799H318.751C316.461 160.799 317.459 156.49 317.459 154.828V122.65C317.459 121.367 316.621 118.999 318.429 118.999H393.73L405.997 122.333C407.612 123.181 410.456 125.725 411.61 127.184C412.727 128.599 412.7 128.895 413.559 130.494C414.11 131.523 414.133 131.258 414.378 132.307L415.706 138.574C415.706 143.371 415.756 141.237 414.815 145.287C414.572 146.328 414.586 146.577 414.448 147.566C414.086 150.206 414.107 148.191 412.761 151.143C412.301 152.152 412.437 151.916 411.792 152.8C411.129 153.704 410.356 154.672 409.48 155.403ZM341.311 81.4477C340.109 83.2623 341.706 81.5046 339.538 83.9404L332.32 93.7813C331.935 94.383 331.878 94.4927 331.475 95.2374C330.425 97.1813 330.145 96.4719 328.593 98.9136C328.147 99.6152 328.2 99.6758 327.706 100.325L317.782 113.693C317.459 112.266 317.505 112.155 317.463 110.371C317.423 108.729 317.154 108.815 317.129 107.375L317.459 55.9692C317.459 52.4713 316.159 44.3586 318.429 44.3586H385.974C388.359 44.3586 391.821 44.4213 393.529 45.2268C396.699 46.72 397.121 46.1341 398.385 46.8768C398.47 46.9276 398.69 47.0904 398.77 47.1452C401.074 48.7285 402.45 49.5848 403.883 51.8481C407.154 57.0097 406.333 58.1032 406.333 65.2577C406.333 67.954 405.578 68.299 404.763 70.6112C404.072 72.565 401.478 74.9909 399.789 76.1216C398.606 76.9152 398.003 76.6487 396.776 77.3404C394.256 78.7632 393.111 78.4026 390.104 79.1178C388.794 79.4294 388.067 79.7919 386.626 79.8604C375.836 80.3817 363.635 79.8546 352.686 79.8546C348.545 79.8546 342.993 78.9139 341.311 81.4477ZM452.225 91.7963C453.034 90.6656 457.011 89.5193 458.609 89.0627C460.544 88.5081 462.435 86.7602 464.275 85.9215C466.101 85.0887 468.075 83.3604 469.411 81.9043C475.344 75.4318 472.552 78.7926 477.293 71.7497C478.293 70.2644 478.924 68.589 479.44 66.9859C479.678 66.2491 479.736 66.2805 480.064 65.6358L482.27 58.6127C482.426 57.3193 482.448 55.6791 482.69 54.3996C482.917 53.216 483.574 52.781 483.574 50.9939C483.574 48.5875 483.69 45.5736 483.306 43.3043C483.091 42.0248 482.818 41.4603 482.684 40.6275C482.383 38.7602 482.554 36.6633 482.199 34.8213C482.029 33.9494 481.587 33.4868 481.264 32.4639C480.688 30.6474 480.528 29.211 479.644 27.4925C478.36 24.9882 478.352 24.0515 476.421 21.1807C473.26 16.4816 471.644 15.2039 467.489 11.4395L455.068 4.94939L444.791 2.56056C442.436 2.42541 441.656 1.97074 439.703 1.47895C434.695 0.216894 318.934 0.908715 318.196 1.08901C316.938 1.39671 316.039 2.74291 315.415 3.77952C313.762 6.52878 311.505 8.87057 309.701 11.5141C309.26 12.1568 309.058 12.6819 308.596 13.3658L305.712 17.04C305.659 17.1223 305.51 17.3594 305.455 17.4379L304.605 18.5568C303.663 19.854 302.892 21.4648 301.747 22.5895C300.399 23.9103 299.544 25.9542 298.313 27.3591C295.193 30.9257 294.067 33.3438 292.532 35.3583C292.49 35.4132 292.427 35.4857 292.384 35.5365L275.028 58.8556C274.242 59.9295 273.707 61.1406 272.942 62.0244L263.802 74.5363C262.978 75.8609 261.873 76.6683 260.666 78.6181L259.031 80.9187C258.34 81.9905 257.456 83.1251 256.617 84.0814C255.699 85.1278 255.124 86.0195 254.46 87.1737C253.426 88.9667 252.252 89.8152 250.971 91.8865C250.517 92.6213 250.842 92.0922 250.418 92.6448C250.16 92.98 250.042 93.1132 249.849 93.3895C248.326 95.5745 246.036 97.4949 246.036 100.422V199.613C246.036 200.957 246.385 202.599 247.652 202.599H437.035C439.856 202.599 440.73 201.474 443.173 201.267C449.362 200.743 449.251 199.736 452.565 199.297C454.496 199.043 455.215 198.37 458.288 197.543L467.109 193.328C467.569 193.056 467.943 192.915 468.372 192.635L470.504 191.173C473.829 189.533 475.961 187.026 478.484 184.436C483.341 179.451 481.913 180.135 485.098 175.965C485.625 175.273 485.47 175.424 485.805 174.701L490.6 162.704C490.9 161.197 490.969 161.144 491.421 159.898L493.269 146.536C493.217 141.893 494.232 136.563 492.616 131.944C491.885 129.857 491.971 127.316 491.144 125.162C490.572 123.673 490.295 122.315 489.713 120.992C488.224 117.612 486.081 112.897 483.656 110.291C478.094 104.322 476.768 101.694 468.289 97.8671C467.384 97.4595 467.056 97.1166 466.365 96.8541L456.088 93.4738C454.023 92.972 453.297 93.4405 452.225 91.7963Z" fill="white"/>
<path fill-rule="evenodd" clip-rule="evenodd" d="M85.4563 1.19091C83.9963 1.06746 83.1107 0.900915 81.2156 0.900915L7.20662 1.06366C5.09767 1.0695 2.07659 0.589419 0.0974121 1.56336C2.28463 6.58967 0.801641 4.13422 3.92017 8.25526L14.8844 23.2069C18.417 27.4063 21.2033 32.1055 24.6826 36.3714L36.0858 51.5367C39.1069 55.3422 41.4543 59.6435 44.6223 63.3413L52.9052 74.413C53.6858 75.6279 54.035 76.2393 54.9529 77.2876L71.2954 99.3271C72.0645 100.256 72.6369 100.842 73.3145 101.898C74.9462 104.446 77.0264 106.566 78.5648 109.115C78.9044 109.678 79.122 109.952 79.5036 110.473C80.2175 111.447 80.7652 112.162 81.4905 113.078C83.6394 115.79 90.2637 125.417 91.7962 127.047C92.5997 127.902 93.2219 128.701 93.8001 129.636C95.1189 131.77 96.3366 133.106 97.9263 135.021C98.7564 136.022 99.0867 136.932 99.8596 138.011C101.728 140.618 105.14 143.512 105.495 146.824C106.28 154.184 105.776 184.516 105.776 194.969C105.776 198.659 104.782 202.599 107.715 202.599H194.65C195.837 202.599 196.213 202.084 196.914 201.604V153.502C196.914 147.699 195.896 146.167 199.738 141.805L209.754 128.2C210.561 127.281 211.141 126.456 211.92 125.446L244.242 81.6635C246.735 77.7521 249.792 74.6129 252.372 70.7662L256.361 65.2401C258.447 61.9108 261.346 58.9361 263.38 55.5264C264.819 53.1122 266.762 51.0664 268.428 48.7658L276.007 38.2977C276.522 37.5942 276.081 38.1684 276.453 37.7628C277.929 36.1539 279.112 34.0454 280.48 32.276L292.525 15.7782C293.2 14.8395 293.712 13.9988 294.437 13.0954C295.225 12.1156 295.826 11.373 296.595 10.3345C297.422 9.21751 297.714 8.64521 298.401 7.54592C299.794 5.31197 301.622 4.73778 301.622 1.56336C300.248 1.23403 299.149 0.900915 297.422 0.900915H239.25C233.343 0.900915 227.363 0.599191 221.462 0.911126C218.22 1.08163 215.779 0.311525 213.611 3.11178L204.425 15.5767C203.731 16.3704 203.349 16.6329 202.725 17.4815C202.208 18.1829 201.778 18.7944 201.206 19.5724L195.767 26.9266C195.517 27.3166 195.408 27.591 195.16 27.9613C194.593 28.806 194.131 29.0548 193.49 29.8974C192.894 30.6812 192.562 31.2319 191.965 31.9804L179.567 48.4469C177.794 51.351 175.107 53.773 173.342 56.6555C172.594 57.8764 172.752 57.655 171.787 58.7073C170.092 60.5611 168.697 62.9714 167.231 64.978L156.427 79.4318C154.961 81.2602 153.263 83.8448 151.345 85.1637C149.48 84.1506 148.707 82.2831 147.272 80.7193C147.226 80.6683 147.159 80.5998 147.114 80.5488C146.925 80.3431 146.948 80.3901 146.648 80.0335C145.1 78.1935 144.228 76.2652 142.692 74.4722C140.205 71.5699 140.121 71.0036 138.468 68.856C137.712 67.8762 137.064 67.1296 136.254 66.1518C135.529 65.2759 134.989 64.4371 134.308 63.5043L129.96 58.0175C128.573 56.242 127.569 54.1434 126.054 52.4052C123.674 49.6775 121.801 46.3814 119.374 43.6694C117.927 42.0527 117.009 40.2833 115.664 38.5215C114.845 37.4497 114.112 36.9931 113.337 35.9349C112.879 35.3098 112.734 34.9414 112.349 34.2947C111.171 32.3214 109.503 30.7909 108.169 28.9646L90.5844 5.54763C90.5443 5.49269 90.4851 5.41628 90.445 5.35945C88.7847 3.07655 88.7273 1.46924 85.4563 1.19091Z" fill="white"/>
<path fill-rule="evenodd" clip-rule="evenodd" d="M473.556 1.56327C473.722 3.63446 478.226 6.67577 479.884 8.00431C480.831 8.76669 481.365 9.44081 482.232 10.2403C484.892 12.6956 486.711 16.1641 488.702 19.1897C489.373 20.2086 488.995 19.3523 489.515 20.677L490.91 23.5576C491.433 24.7471 491.444 25.625 491.997 26.7537C492.935 28.6564 492.572 27.614 492.982 30.0557C493.251 31.6488 493.753 32.0446 494.103 33.5496L495.854 49.6652C495.854 52.7456 494.885 54.2644 494.885 59.2868C494.885 61.7891 501.095 60.9446 503.611 60.9446H529.467C531.276 60.9344 533.665 60.4625 533.665 62.2732L533.667 149.52C533.668 151.981 533.39 153.512 533.333 155.481C533.01 166.533 533.343 180.673 533.343 192.315C533.343 195.363 532.402 202.599 535.282 202.599H614.784C615.971 202.599 616.347 202.084 617.047 201.604C617.047 189.515 616.53 62.138 617.37 61.2778C618.927 59.6786 671.258 62.1124 674.107 60.4685C675.067 59.9139 675.912 58.7832 676.519 57.968L679.424 53.6511C679.823 53.1179 680.067 52.7633 680.531 52.1323C681.338 51.0369 681.722 50.3118 682.514 49.1909L690.339 37.651C691.106 36.4732 691.652 35.9893 692.417 34.8076C693.125 33.7141 693.633 32.8226 694.297 31.7625C695.033 30.5828 695.621 30.4377 696.455 29.0014C698.121 26.1247 698.877 25.5662 700.408 23.1069C701.148 21.9154 701.562 21.3316 702.448 20.2244L709.349 10.058C710.385 8.41003 714 3.88341 714 2.22745C714 0.849973 710.91 0.900833 708.83 0.900833L480.718 1.08315C476.93 0.922437 478.01 0.49919 473.556 1.56327Z" fill="white"/>
<path fill-rule="evenodd" clip-rule="evenodd" d="M319.076 321.031C320.73 321.031 321.297 320.423 322.627 320.031C328.383 318.344 333.592 316.653 339.611 315.571C342.813 314.997 352.068 314.057 354.829 315.181C355.999 315.656 355.743 315.752 356.241 316.718C356.659 320.03 343.52 324.207 340.819 324.774L321.064 328.048C315.037 328.669 316.461 329.602 311.005 328.321C307.029 327.386 309.787 324.088 312.188 322.254C314.927 320.161 315.035 321.031 319.076 321.031ZM316.812 317.049C317.205 316.5 316.761 317.102 317.276 316.53L317.589 316.187C317.633 316.138 317.7 316.065 317.744 316.014C318.049 315.673 318.167 315.519 318.511 315.144L323.727 309.55C323.772 309.501 323.839 309.43 323.883 309.379C324.02 309.226 324.164 309.058 324.343 308.856C324.673 308.482 324.784 308.358 325.126 308.002C325.939 307.151 325.91 307.161 326.923 306.528C330.433 304.337 338.401 302.348 342.205 301.645C343.813 301.349 353.734 299.754 354.948 300.794C354.814 302.454 355.266 301.266 354.329 302.15C352.825 303.571 343.716 307.619 341.514 308.566C337.876 310.128 335.567 311.317 331.601 312.656C330.383 313.067 329.956 313.351 329.021 313.657L318.953 317.296C317.53 317.66 318.087 317.743 316.812 317.049ZM344.039 311.158C346.911 309.175 346.46 310.069 350.094 308.419C353.489 306.877 360.242 304.609 361.62 300.982C363.288 296.591 357.568 296.926 353.653 297.144C346.092 297.563 329.589 300.363 323.103 302.938C322.217 303.289 321.807 303.661 320.978 304.075C320.091 304.517 319.744 304.731 318.797 305.152C311.447 308.419 318.295 309.814 313.667 314.484L305.743 322.273C302.594 325.489 302.27 325.72 302.27 328.328C302.27 330.433 308.235 331.037 309.407 331.285C313.713 332.202 316.402 331.178 320.37 330.986C325.41 330.743 329.296 329.937 334.086 328.808L349.587 324.484C352.844 323.161 361.734 320.408 361.734 316.718C361.734 314.347 360.719 314.151 358.835 313.39C355.631 312.097 346.926 311.409 343.636 311.409L344.039 311.158Z" fill="white"/>
<path fill-rule="evenodd" clip-rule="evenodd" d="M226.968 323.684C226.314 320.8 228.894 319.986 232.955 317.886C234.627 317.02 240.215 314.396 241.513 314.396C244.614 314.396 242.198 316.716 240.772 317.948C239.484 319.061 238.419 319.714 236.889 320.598C232.82 322.947 230.932 323.684 226.968 323.684ZM220.812 342.908C221.993 342.827 222.949 342.502 223.98 342.179C225.062 341.838 225.688 341.799 226.747 341.369C232.973 338.847 231.864 339.41 236.646 336.273L244.664 329.241C246.735 327.057 249.914 322.467 249.914 319.371C249.914 313.88 250.534 310.414 242.483 310.414C234.77 310.414 220.829 319.863 220.829 324.348C220.829 329.406 232.787 325.675 234.108 325.373C237.486 324.603 241.189 322.244 241.189 324.68C241.189 329.073 233.263 333.956 229.629 336.035C224.48 338.981 211.05 344.291 204.748 338.865C203.601 337.877 203.647 337.493 203.256 335.751C202.133 330.744 198.057 334.28 199.185 337.58C200.311 340.878 204.674 342.814 207.576 342.927C211.063 343.064 212.258 343.59 213.718 343.59L220.812 342.908Z" fill="white"/>
<path fill-rule="evenodd" clip-rule="evenodd" d="M507.811 330.651C509.622 330.651 511.155 328.709 512.161 327.484L524.621 313.073C525.178 312.597 525.667 312.199 526.236 311.744C526.921 311.196 527.261 310.747 527.988 310.226C535.637 304.756 536.969 306.422 544.519 305.299C549.097 304.619 551.823 304.774 555.949 304.425L575.675 302.779C577.059 302.658 576.734 302.411 577.942 302.121C577.879 299.213 576.446 299.912 574.377 300.104C572.337 300.295 565.856 300.097 562.566 300.602L529.274 303.253C527.144 303.557 525.932 303.626 523.669 303.802C516.76 304.339 509.014 305.711 502.317 306.432C500.011 306.681 494.221 307.132 492.946 309.087C493.744 310.312 493.858 310.347 495.646 310.633L507.355 309.946C510.748 309.448 519.655 308.111 522.356 308.756C522.05 309.622 519.783 311.699 518.827 312.763L515.814 315.973C512.987 318.881 505.872 325.242 505.872 328.328C505.872 329.53 505.662 330.651 507.811 330.651Z" fill="white"/>
<path fill-rule="evenodd" clip-rule="evenodd" d="M651.207 312.307C652.95 312.072 654.906 312.074 657.121 312.074C656.728 313.586 655.171 314.033 653.106 314.919C652.173 315.321 651.713 315.577 650.827 315.897L628.885 323.896C627.475 324.341 625.32 325.371 624.15 326C622.187 327.059 620.925 327.513 620.925 329.324C620.925 331.28 623.692 330.494 625.635 330.792C629.731 331.419 633.817 330.627 637.08 330.647C645.571 330.696 651.863 330.017 659.707 329.657C662.937 329.508 663.259 329.255 663.908 327.997C663.242 326.976 662.48 326.58 661.028 326.283L657.77 326.002C655.988 325.961 655.728 326.328 653.902 326.351C652.568 326.369 651.01 326.245 649.705 326.355L638.054 327.361C636.258 327.361 636.012 327.002 634.176 327.002C634.699 326.269 635.288 326.195 636.218 325.781C641.642 323.365 661.54 316.946 665.616 312.832C666.179 312.264 666.494 311.784 666.494 310.747C666.494 308.474 662.099 308.425 660.352 308.425L649.266 308.988C647.529 309.299 645.594 309.409 644.088 309.644C641.586 310.034 641.046 309.926 641.609 312.405C644.636 313.13 648.211 312.712 651.207 312.307Z" fill="white"/>
<path fill-rule="evenodd" clip-rule="evenodd" d="M50.1893 337.286C51.7066 337.286 52.4643 336.359 53.1972 335.397C54.077 334.24 54.2507 333.927 55.2812 332.892L59.9666 328.081C64.1213 323.766 66.11 322.205 70.3545 318.176C74.637 314.11 80.5247 309.022 84.3723 305.031C85.2845 304.084 85.7006 303.381 86.6357 302.378C88.5519 300.32 88.2865 297.808 86.7082 297.808C82.46 297.808 79.0342 303.034 75.9483 305.672C74.6695 306.765 74.7592 306.561 73.6256 307.933C73.1848 308.468 73.4003 308.19 73.0091 308.625C67.4783 314.766 67.5127 315.785 61.2663 310.988L49.2963 302.374C46.7599 300.786 46.1224 301.758 45.3419 302.452C45.6033 302.958 45.756 303.44 46.1358 303.961L46.9182 304.815C46.9659 304.862 47.0367 304.929 47.0862 304.976L53.932 310.222C54.9815 310.951 55.4396 311.121 56.4702 311.929C62.6861 316.8 65.4248 316.155 59.3234 322.446C56.3481 325.514 46.6339 330.415 46.6339 334.299C46.6339 337.139 48.2275 337.286 50.1893 337.286Z" fill="white"/>
<path fill-rule="evenodd" clip-rule="evenodd" d="M390.499 347.901C391.438 347.901 393.241 346.031 393.926 345.449L415.154 331.413C415.912 330.915 416.057 330.974 416.864 330.513L423.118 326.318C423.781 325.879 423.855 325.74 424.649 325.234L436.671 317.006C439.705 314.737 440.745 309.471 430.113 316.912C427.51 318.734 422.12 322.493 419.134 322.91C416.089 323.337 412.273 318.697 410.345 316.581L409.375 315.585C408.179 314.429 406.954 313.034 405.242 312.842C404.335 312.74 403.425 313.028 403.425 314.065C403.425 318.895 412.786 322.685 414.736 325.675C413.79 326.792 405.726 331.85 403.772 332.998C403.203 333.331 402.556 333.635 401.908 334.07C401.249 334.511 400.82 334.815 400.135 335.236L392.802 339.982C391.64 340.879 390.621 341.722 389.522 342.586C386.521 344.942 386.317 347.901 390.499 347.901Z" fill="white"/>
<path fill-rule="evenodd" clip-rule="evenodd" d="M563.4 346.243C563.4 347.764 565.776 348.212 566.657 347.912C568.056 347.434 568.755 346.451 569.782 345.496L576.236 341.175C580.007 338.381 581.614 337.75 584.799 335.698L599.548 325.959C600.082 325.577 600.537 325.313 601.121 324.919C603.768 323.13 604.485 322.939 607.577 320.598C608.989 319.528 614.784 316.183 614.784 314.396C614.784 309.969 605.735 317.325 603.901 318.483C602.987 319.061 602.59 319.387 601.766 319.941C600.999 320.457 600.26 320.764 599.428 321.19C594.76 323.572 592.981 324.047 588.433 318.887C578.639 307.768 577.791 314.648 581.626 318.244L587.859 323.126C589.25 324.011 589.807 324.241 590.546 325.675C589.729 326.927 588.609 327.433 587.214 328.226C585.979 328.928 584.757 329.657 583.582 330.468C582.816 330.997 582.647 331.174 581.841 331.669C581.227 332.046 580.763 332.326 580.022 332.786C576.746 334.822 563.4 342.253 563.4 346.243Z" fill="white"/>
<path fill-rule="evenodd" clip-rule="evenodd" d="M125.491 327.002C121.511 327.002 130.617 321.107 131.815 320.223C131.871 320.182 131.945 320.123 132 320.082C133.436 319.048 137.125 317.098 137.125 315.06C137.125 308.948 124.519 319.622 122.727 321.178C119.891 323.639 118.704 324.595 118.704 327.333C118.704 328.861 121.758 330.319 123.551 330.319C126.731 330.319 127.886 330.082 130.666 329.328C133.338 328.603 138.01 326.418 141.043 325.383C142.751 324.803 145.001 323.516 146.175 324.015C147.421 324.358 147.179 324.811 147.804 325.993C150.161 330.435 153.322 330.609 156.851 330.639C159.652 330.662 158.908 331.44 162.967 330.639C164.193 330.398 164.479 330.427 164.595 328.993C161.179 327.309 157.309 329.626 153.973 327.29C151.429 325.508 152.202 323.915 154.706 321.162L156.713 319.244C156.761 319.195 156.828 319.126 156.876 319.077C157.908 317.978 159.101 316.749 159.101 315.391C159.101 310.463 153.259 314.98 149.56 316.876C143.531 319.969 141.278 321.68 134.314 324.446L125.491 327.002Z" fill="white"/>
<path fill-rule="evenodd" clip-rule="evenodd" d="M172.351 328.661C175.285 328.661 182.117 325.089 185.934 323.363L194.64 319.361C195.41 319.014 196.158 318.736 196.944 318.409C197.99 317.974 197.719 317.927 198.984 317.517C200.746 316.949 202.137 316.586 203.771 316.126C206.343 315.405 209.678 314.229 212.426 315.722C212.067 317.302 211.01 318.795 210.071 319.939C208.971 321.282 207.901 321.842 206.687 323.1C205.404 324.431 204.679 325.064 203.683 326.657C202.488 328.565 202.645 330.651 204.023 330.651C207.076 330.651 206.082 330.729 206.689 329.737L207.009 329.073C208.355 326.426 209.851 325.166 211.861 323.104L214.876 319.896C217.353 317.121 217.626 316.046 216.951 313.069C213.176 311.209 202.599 313.655 199.106 314.656L187.218 318.044C187.423 317.605 187.467 317.443 187.707 316.888C188.241 315.656 188.188 317.102 188.188 315.722C188.188 312.311 185.039 313.214 183.415 314.805L174.8 322.55C173.054 323.937 167.252 328.661 172.351 328.661Z" fill="white"/>
<path fill-rule="evenodd" clip-rule="evenodd" d="M547.241 326.67C547.241 324.137 553.153 321.186 555.161 320.204L562.757 317.055C564.77 316.114 573.095 315.507 573.095 318.376C573.095 320.845 566.785 323.919 564.829 324.821C561.978 326.138 547.241 332.242 547.241 326.67ZM557.905 330.651C563.106 330.651 576.648 325.111 576.648 319.04C576.648 316.502 576.759 315.906 574.31 314.805C570.555 313.118 566.923 313.731 561.783 313.731C557.56 313.731 546.836 319.295 543.956 322.967C536.629 332.306 553.344 330.651 557.905 330.651Z" fill="white"/>
<path fill-rule="evenodd" clip-rule="evenodd" d="M371.106 326.67C371.106 322.926 387.044 316.387 389.529 316.387C396.907 316.387 393.067 316.226 397.285 317.382C397.285 319.83 397.001 319.689 395.531 320.89C394.861 321.437 395.598 320.894 394.793 321.458C390.815 324.243 382.849 327.764 378.09 328.53C375.506 328.946 371.106 329.641 371.106 326.67ZM381.449 330.65C385.844 330.65 390.573 328.657 393.392 326.988C397.079 324.805 400.839 322.471 400.839 318.044C400.839 314.983 396.272 313.731 394.052 313.731C385.518 313.731 380.462 313.339 372.215 319.514C368.515 322.285 366.582 322.696 366.582 327.666C366.582 331.646 378.347 330.65 381.449 330.65Z" fill="white"/>
<path fill-rule="evenodd" clip-rule="evenodd" d="M84.7693 326.67C84.7693 324.525 89.1264 322.371 90.6494 321.425C93.9701 319.365 97.0503 318.55 100.552 316.996C102.409 316.171 110.948 315.622 110.948 318.044C110.948 320.455 108.866 321.209 106.442 322.708C102.844 324.932 98.7299 326.641 94.7258 327.933C93.2639 328.403 84.7693 330.549 84.7693 326.67ZM96.4053 330.651C100.711 330.651 108.19 326.786 111.5 323.919C114.891 320.986 116.047 316.671 112.118 314.854C108.45 313.159 104.396 313.731 99.6363 313.731C95.5006 313.731 88.2713 317.772 84.9563 320.225C75.7097 327.068 81.3608 330.651 85.7388 330.651H96.4053Z" fill="white"/>
</g>
<defs>
<clipPath id="clip0_1_2">
<rect width="714" height="348" fill="white"/>
</clipPath>
</defs>
</svg>
