<svg width="1123" height="794" viewBox="0 0 1123 794" fill="none" xmlns="http://www.w3.org/2000/svg">
<rect width="1123" height="794" fill="#1E1E1E"/>
<path fill-rule="evenodd" clip-rule="evenodd" d="M607.82 410.433L601.752 413.692L593.929 415.241H522.555C520.402 415.241 521.34 411.402 521.34 409.922V381.257C521.34 380.114 520.553 378.005 522.252 378.005H593.018L604.547 380.974C606.064 381.73 608.736 383.996 609.821 385.297C610.871 386.557 610.846 386.82 611.653 388.245C612.171 389.161 612.193 388.926 612.422 389.86L613.67 395.442C613.67 399.715 613.717 397.814 612.833 401.422C612.605 402.349 612.618 402.571 612.489 403.453C612.148 405.804 612.167 404.01 610.903 406.638C610.471 407.537 610.598 407.328 609.992 408.115C609.369 408.92 608.643 409.782 607.82 410.433ZM543.756 344.554C542.626 346.17 544.127 344.605 542.09 346.775L535.307 355.541C534.945 356.077 534.891 356.175 534.512 356.838C533.526 358.57 533.262 357.938 531.804 360.113C531.384 360.738 531.435 360.792 530.97 361.37L521.644 373.278C521.34 372.007 521.383 371.908 521.344 370.319C521.306 368.856 521.053 368.933 521.03 367.65L521.34 321.858C521.34 318.742 520.119 311.515 522.252 311.515H585.729C587.971 311.515 591.224 311.571 592.829 312.288C595.809 313.618 596.205 313.096 597.392 313.758C597.473 313.803 597.679 313.948 597.755 313.997C599.919 315.408 601.213 316.17 602.559 318.187C605.634 322.785 604.862 323.759 604.862 330.132C604.862 332.534 604.152 332.841 603.386 334.901C602.737 336.641 600.3 338.802 598.712 339.809C597.6 340.516 597.033 340.279 595.88 340.895C593.513 342.163 592.437 341.841 589.61 342.478C588.38 342.756 587.696 343.079 586.342 343.14C576.201 343.604 564.735 343.135 554.446 343.135C550.554 343.135 545.336 342.297 543.756 344.554ZM647.99 353.773C648.75 352.765 652.488 351.744 653.989 351.337C655.808 350.843 657.585 349.286 659.314 348.539C661.031 347.797 662.885 346.258 664.141 344.961C669.717 339.195 667.093 342.189 671.548 335.915C672.488 334.592 673.082 333.099 673.566 331.671C673.79 331.015 673.844 331.043 674.152 330.469L676.226 324.212C676.373 323.06 676.393 321.599 676.62 320.459C676.834 319.405 677.451 319.018 677.451 317.426C677.451 315.282 677.56 312.597 677.2 310.576C676.997 309.436 676.741 308.933 676.615 308.191C676.332 306.528 676.493 304.66 676.159 303.019C676 302.242 675.584 301.83 675.281 300.919C674.739 299.301 674.588 298.021 673.758 296.49C672.551 294.26 672.544 293.425 670.729 290.868C667.758 286.682 666.239 285.544 662.335 282.19L650.662 276.409L641.004 274.281C638.791 274.161 638.057 273.756 636.222 273.317C631.516 272.193 522.727 272.809 522.033 272.97C520.851 273.244 520.006 274.443 519.42 275.367C517.866 277.816 515.745 279.902 514.05 282.257C513.635 282.829 513.445 283.297 513.011 283.906L510.301 287.179C510.251 287.253 510.111 287.464 510.059 287.534L509.261 288.53C508.375 289.686 507.65 291.121 506.574 292.123C505.308 293.299 504.504 295.12 503.348 296.372C500.415 299.549 499.357 301.703 497.915 303.497C497.875 303.546 497.816 303.611 497.775 303.656L481.464 324.429C480.726 325.385 480.223 326.464 479.504 327.252L470.915 338.397C470.14 339.577 469.102 340.297 467.968 342.033L466.431 344.083C465.782 345.037 464.951 346.048 464.162 346.9C463.299 347.832 462.76 348.627 462.136 349.655C461.163 351.252 460.06 352.008 458.857 353.853C458.43 354.507 458.735 354.036 458.337 354.528C458.095 354.827 457.983 354.946 457.802 355.192C456.371 357.138 454.219 358.849 454.219 361.457V449.816C454.219 451.013 454.547 452.476 455.738 452.476H633.715C636.366 452.476 637.187 451.474 639.483 451.289C645.3 450.823 645.196 449.926 648.309 449.535C650.124 449.308 650.8 448.709 653.688 447.973L661.978 444.218C662.41 443.975 662.762 443.85 663.165 443.6L665.169 442.298C668.293 440.837 670.296 438.604 672.667 436.296C677.232 431.855 675.89 432.465 678.884 428.75C679.379 428.134 679.233 428.268 679.547 427.624L684.055 416.937C684.336 415.595 684.401 415.548 684.826 414.438L686.562 402.535C686.513 398.399 687.468 393.651 685.949 389.537C685.262 387.678 685.342 385.414 684.566 383.495C684.028 382.168 683.768 380.959 683.221 379.78C681.822 376.769 679.807 372.569 677.528 370.248C672.301 364.931 671.055 362.59 663.086 359.18C662.236 358.817 661.928 358.512 661.278 358.278L651.62 355.267C649.68 354.82 648.998 355.237 647.99 353.773Z" fill="white"/>
<path fill-rule="evenodd" clip-rule="evenodd" d="M303.31 273.061C301.938 272.951 301.105 272.802 299.324 272.802L229.773 272.947C227.791 272.953 224.952 272.525 223.092 273.393C225.147 277.87 223.753 275.683 226.684 279.354L236.988 292.673C240.308 296.414 242.926 300.6 246.196 304.4L256.913 317.909C259.752 321.299 261.958 325.131 264.935 328.425L272.719 338.287C273.453 339.37 273.781 339.914 274.643 340.848L290.002 360.481C290.724 361.308 291.262 361.83 291.899 362.771C293.433 365.041 295.388 366.929 296.833 369.2C297.153 369.701 297.357 369.946 297.716 370.41C298.387 371.278 298.901 371.915 299.583 372.73C301.602 375.146 307.828 383.722 309.268 385.174C310.023 385.935 310.608 386.648 311.151 387.48C312.39 389.381 313.535 390.572 315.029 392.277C315.809 393.169 316.119 393.979 316.846 394.941C318.602 397.263 321.808 399.841 322.142 402.791C322.879 409.348 322.406 436.368 322.406 445.679C322.406 448.966 321.471 452.476 324.228 452.476H405.927C407.043 452.476 407.396 452.017 408.055 451.589V408.74C408.055 403.571 407.099 402.206 410.709 398.321L420.122 386.201C420.88 385.382 421.426 384.647 422.157 383.748L452.533 344.746C454.875 341.262 457.748 338.465 460.173 335.039L463.922 330.116C465.882 327.15 468.607 324.5 470.519 321.463C471.871 319.312 473.697 317.49 475.262 315.441L482.385 306.116C482.869 305.489 482.455 306 482.804 305.639C484.191 304.206 485.303 302.328 486.589 300.751L497.908 286.055C498.543 285.219 499.023 284.47 499.705 283.665C500.446 282.793 501.011 282.131 501.733 281.206C502.51 280.211 502.784 279.701 503.43 278.722C504.739 276.732 506.458 276.22 506.458 273.393C505.166 273.099 504.133 272.802 502.51 272.802H447.841C442.29 272.802 436.671 272.534 431.125 272.812C428.078 272.963 425.784 272.277 423.746 274.772L415.114 285.876C414.461 286.583 414.103 286.817 413.516 287.573C413.03 288.197 412.626 288.742 412.088 289.435L406.977 295.986C406.742 296.334 406.64 296.578 406.406 296.908C405.874 297.66 405.44 297.882 404.837 298.633C404.277 299.331 403.965 299.821 403.404 300.488L391.753 315.157C390.087 317.744 387.562 319.901 385.903 322.469C385.199 323.556 385.348 323.359 384.441 324.297C382.848 325.948 381.537 328.095 380.16 329.883L370.006 342.758C368.629 344.387 367.033 346.689 365.23 347.864C363.478 346.962 362.751 345.298 361.403 343.905C361.36 343.86 361.297 343.799 361.254 343.753C361.076 343.57 361.098 343.612 360.816 343.294C359.362 341.655 358.542 339.937 357.098 338.34C354.761 335.755 354.682 335.25 353.129 333.337C352.419 332.464 351.809 331.799 351.049 330.928C350.367 330.148 349.859 329.401 349.219 328.57L345.133 323.682C343.83 322.101 342.886 320.231 341.462 318.683C339.226 316.253 337.466 313.317 335.185 310.901C333.825 309.461 332.962 307.884 331.698 306.315C330.929 305.36 330.24 304.954 329.512 304.011C329.081 303.454 328.945 303.126 328.583 302.55C327.476 300.792 325.908 299.429 324.655 297.802L308.129 276.942C308.091 276.893 308.036 276.825 307.998 276.774C306.438 274.741 306.384 273.309 303.31 273.061Z" fill="white"/>
<path fill-rule="evenodd" clip-rule="evenodd" d="M668.036 273.393C668.192 275.238 672.425 277.947 673.984 279.13C674.873 279.809 675.376 280.41 676.19 281.122C678.69 283.309 680.399 286.399 682.27 289.094C682.901 290.002 682.546 289.239 683.034 290.419L684.345 292.985C684.836 294.045 684.847 294.827 685.367 295.832C686.248 297.527 685.907 296.599 686.293 298.774C686.546 300.193 687.017 300.545 687.346 301.886L688.992 316.242C688.992 318.986 688.081 320.339 688.081 324.813C688.081 327.042 693.917 326.29 696.281 326.29H720.58C722.28 326.281 724.526 325.86 724.526 327.473L724.527 405.193C724.529 407.386 724.267 408.749 724.213 410.503C723.91 420.348 724.223 432.945 724.223 443.315C724.223 446.03 723.339 452.476 726.045 452.476H800.759C801.874 452.476 802.228 452.017 802.886 451.59C802.886 440.821 802.4 327.353 803.189 326.587C804.653 325.162 853.832 327.33 856.509 325.866C857.412 325.372 858.206 324.364 858.776 323.638L861.506 319.793C861.881 319.318 862.111 319.002 862.546 318.44C863.305 317.464 863.666 316.818 864.41 315.819L871.764 305.54C872.485 304.49 872.998 304.059 873.717 303.007C874.382 302.033 874.859 301.239 875.483 300.294C876.176 299.243 876.728 299.114 877.512 297.835C879.078 295.272 879.788 294.774 881.226 292.584C881.922 291.522 882.311 291.002 883.144 290.016L889.629 280.96C890.603 279.492 894 275.459 894 273.984C894 272.757 891.096 272.802 889.141 272.802L674.768 272.965C671.207 272.822 672.222 272.445 668.036 273.393Z" fill="white"/>
<path fill-rule="evenodd" clip-rule="evenodd" d="M522.86 557.976C524.415 557.976 524.947 557.435 526.197 557.085C531.607 555.582 536.501 554.076 542.158 553.112C545.168 552.601 553.865 551.763 556.46 552.765C557.559 553.188 557.319 553.273 557.787 554.134C558.18 557.084 545.831 560.805 543.293 561.31L524.728 564.227C519.064 564.78 520.402 565.611 515.275 564.469C511.539 563.637 514.13 560.699 516.387 559.065C518.96 557.201 519.063 557.976 522.86 557.976ZM520.733 554.429C521.102 553.94 520.684 554.476 521.168 553.966L521.462 553.661C521.504 553.617 521.566 553.552 521.608 553.507C521.895 553.203 522.006 553.065 522.329 552.732L527.23 547.748C527.274 547.705 527.336 547.642 527.378 547.596C527.507 547.46 527.641 547.31 527.81 547.13C528.12 546.797 528.224 546.687 528.545 546.369C529.309 545.612 529.282 545.62 530.235 545.057C533.533 543.105 541.021 541.333 544.596 540.706C546.108 540.443 555.43 539.022 556.571 539.949C556.446 541.427 556.871 540.37 555.99 541.157C554.577 542.422 546.016 546.029 543.946 546.872C540.528 548.263 538.358 549.323 534.631 550.515C533.486 550.882 533.085 551.135 532.206 551.407L522.745 554.649C521.407 554.973 521.931 555.047 520.733 554.429ZM546.319 549.181C549.018 547.415 548.595 548.211 552.01 546.741C555.201 545.367 561.546 543.347 562.841 540.116C564.409 536.205 559.034 536.503 555.355 536.697C548.249 537.07 532.74 539.565 526.644 541.859C525.812 542.171 525.426 542.503 524.648 542.871C523.814 543.266 523.487 543.456 522.598 543.831C515.691 546.741 522.126 547.984 517.777 552.144L510.33 559.083C507.371 561.947 507.066 562.153 507.066 564.476C507.066 566.351 512.672 566.889 513.773 567.11C517.82 567.927 520.347 567.014 524.076 566.843C528.812 566.627 532.464 565.91 536.966 564.904L551.533 561.051C554.595 559.873 562.949 557.421 562.949 554.134C562.949 552.021 561.995 551.847 560.225 551.17C557.213 550.018 549.033 549.405 545.941 549.405L546.319 549.181Z" fill="white"/>
<path fill-rule="evenodd" clip-rule="evenodd" d="M436.299 560.339C435.684 557.77 438.109 557.045 441.926 555.174C443.497 554.403 448.748 552.065 449.968 552.065C452.883 552.065 450.612 554.132 449.272 555.23C448.062 556.221 447.061 556.803 445.622 557.59C441.799 559.683 440.025 560.339 436.299 560.339ZM430.514 577.464C431.624 577.392 432.522 577.102 433.491 576.814C434.508 576.511 435.096 576.476 436.091 576.093C441.942 573.847 440.9 574.348 445.395 571.553L452.929 565.29C454.875 563.344 457.863 559.255 457.863 556.497C457.863 551.606 458.446 548.518 450.879 548.518C443.631 548.518 430.53 556.935 430.53 560.931C430.53 565.436 441.768 562.113 443.009 561.844C446.184 561.158 449.663 559.056 449.663 561.226C449.663 565.14 442.215 569.49 438.8 571.342C433.961 573.966 421.339 578.696 415.417 573.862C414.339 572.983 414.382 572.641 414.015 571.089C412.96 566.629 409.129 569.778 410.189 572.717C411.247 575.655 415.347 577.38 418.075 577.481C421.352 577.603 422.475 578.071 423.847 578.071L430.514 577.464Z" fill="white"/>
<path fill-rule="evenodd" clip-rule="evenodd" d="M700.229 566.545C701.931 566.545 703.371 564.815 704.316 563.724L716.026 550.887C716.55 550.463 717.009 550.108 717.544 549.703C718.187 549.215 718.507 548.815 719.19 548.351C726.379 543.478 727.631 544.962 734.726 543.962C739.029 543.356 741.59 543.494 745.467 543.183L764.006 541.717C765.306 541.609 765.001 541.389 766.136 541.131C766.077 538.54 764.73 539.163 762.786 539.334C760.869 539.504 754.778 539.328 751.686 539.778L720.399 542.14C718.397 542.41 717.259 542.471 715.131 542.628C708.639 543.107 701.359 544.329 695.065 544.971C692.899 545.193 687.457 545.594 686.259 547.336C687.009 548.427 687.116 548.459 688.797 548.714L699.8 548.101C702.989 547.657 711.359 546.467 713.897 547.041C713.61 547.813 711.48 549.663 710.581 550.611L707.749 553.47C705.093 556.061 698.407 561.727 698.407 564.476C698.407 565.547 698.209 566.545 700.229 566.545Z" fill="white"/>
<path fill-rule="evenodd" clip-rule="evenodd" d="M834.989 550.204C836.626 549.995 838.465 549.997 840.547 549.997C840.177 551.344 838.714 551.742 836.773 552.531C835.896 552.889 835.464 553.118 834.632 553.402L814.011 560.528C812.686 560.924 810.661 561.842 809.562 562.403C807.716 563.345 806.53 563.75 806.53 565.363C806.53 567.105 809.131 566.405 810.957 566.671C814.806 567.229 818.646 566.524 821.713 566.541C829.692 566.585 835.606 565.981 842.977 565.66C846.012 565.527 846.315 565.302 846.925 564.181C846.299 563.272 845.583 562.919 844.218 562.654L841.157 562.404C839.482 562.368 839.238 562.694 837.521 562.715C836.267 562.731 834.804 562.621 833.577 562.719L822.628 563.614C820.94 563.614 820.709 563.295 818.983 563.295C819.475 562.642 820.029 562.576 820.902 562.207C825.999 560.055 844.699 554.337 848.53 550.673C849.059 550.166 849.355 549.739 849.355 548.815C849.355 546.79 845.224 546.747 843.583 546.747L833.165 547.248C831.532 547.525 829.714 547.623 828.299 547.832C825.947 548.18 825.44 548.084 825.969 550.292C828.813 550.938 832.173 550.566 834.989 550.204Z" fill="white"/>
<path fill-rule="evenodd" clip-rule="evenodd" d="M270.167 572.456C271.593 572.456 272.305 571.63 272.993 570.773C273.82 569.743 273.984 569.464 274.952 568.542L279.355 564.256C283.26 560.413 285.129 559.021 289.117 555.432C293.142 551.81 298.675 547.279 302.291 543.723C303.148 542.88 303.539 542.253 304.418 541.359C306.219 539.526 305.97 537.289 304.486 537.289C300.494 537.289 297.274 541.944 294.374 544.294C293.173 545.268 293.257 545.086 292.192 546.308C291.777 546.785 291.98 546.537 291.612 546.924C286.414 552.395 286.447 553.303 280.577 549.03L269.327 541.356C266.944 539.942 266.345 540.808 265.611 541.426C265.857 541.876 266 542.305 266.357 542.77L267.093 543.531C267.137 543.573 267.204 543.632 267.25 543.674L273.684 548.347C274.67 548.996 275.101 549.148 276.069 549.867C281.911 554.207 284.485 553.633 278.751 559.236C275.955 561.97 266.825 566.335 266.825 569.795C266.825 572.325 268.323 572.456 270.167 572.456Z" fill="white"/>
<path fill-rule="evenodd" clip-rule="evenodd" d="M589.981 581.912C590.864 581.912 592.559 580.246 593.202 579.728L613.152 567.224C613.864 566.781 614 566.833 614.759 566.423L620.636 562.685C621.259 562.294 621.329 562.17 622.075 561.72L633.372 554.39C636.224 552.369 637.202 547.678 627.21 554.306C624.764 555.93 619.699 559.278 616.892 559.65C614.031 560.03 610.444 555.897 608.632 554.011L607.721 553.125C606.597 552.095 605.445 550.852 603.836 550.681C602.984 550.59 602.129 550.847 602.129 551.77C602.129 556.073 610.926 559.449 612.759 562.113C611.87 563.108 604.292 567.613 602.455 568.636C601.921 568.933 601.313 569.203 600.703 569.591C600.084 569.984 599.681 570.254 599.037 570.63L592.146 574.857C591.054 575.657 590.096 576.408 589.063 577.177C586.244 579.276 586.052 581.912 589.981 581.912Z" fill="white"/>
<path fill-rule="evenodd" clip-rule="evenodd" d="M752.469 580.435C752.469 581.789 754.702 582.189 755.531 581.922C756.846 581.496 757.502 580.62 758.467 579.77L764.533 575.921C768.077 573.431 769.587 572.869 772.58 571.042L786.441 562.366C786.943 562.025 787.37 561.79 787.919 561.439C790.406 559.845 791.081 559.676 793.986 557.59C795.314 556.637 800.759 553.657 800.759 552.065C800.759 548.122 792.256 554.675 790.532 555.706C789.673 556.221 789.3 556.511 788.525 557.005C787.804 557.464 787.11 557.738 786.328 558.117C781.941 560.24 780.269 560.662 775.995 556.066C766.791 546.161 765.995 552.29 769.598 555.493L775.455 559.842C776.763 560.631 777.287 560.835 777.981 562.113C777.213 563.228 776.16 563.679 774.849 564.386C773.689 565.01 772.541 565.66 771.436 566.383C770.717 566.854 770.557 567.011 769.8 567.453C769.223 567.788 768.787 568.037 768.091 568.448C765.012 570.261 752.469 576.881 752.469 580.435Z" fill="white"/>
<path fill-rule="evenodd" clip-rule="evenodd" d="M340.933 563.295C337.194 563.295 345.75 558.044 346.877 557.256C346.929 557.22 346.999 557.167 347.051 557.131C348.4 556.209 351.867 554.472 351.867 552.657C351.867 547.212 340.02 556.721 338.336 558.107C335.671 560.299 334.555 561.151 334.555 563.59C334.555 564.951 337.425 566.25 339.111 566.25C342.099 566.25 343.184 566.039 345.797 565.367C348.308 564.721 352.699 562.774 355.549 561.853C357.154 561.336 359.268 560.189 360.371 560.634C361.543 560.94 361.315 561.343 361.903 562.396C364.118 566.353 367.088 566.508 370.405 566.534C373.038 566.555 372.338 567.248 376.153 566.534C377.304 566.32 377.573 566.346 377.683 565.068C374.472 563.569 370.835 565.632 367.7 563.551C365.309 561.964 366.036 560.545 368.389 558.093L370.275 556.384C370.32 556.34 370.383 556.279 370.428 556.235C371.398 555.256 372.519 554.162 372.519 552.952C372.519 548.562 367.029 552.585 363.553 554.275C357.887 557.03 355.769 558.554 349.225 561.018L340.933 563.295Z" fill="white"/>
<path fill-rule="evenodd" clip-rule="evenodd" d="M384.972 564.773C387.728 564.773 394.149 561.591 397.736 560.053L405.918 556.488C406.641 556.179 407.344 555.932 408.083 555.64C409.066 555.253 408.811 555.211 410.001 554.846C411.656 554.34 412.964 554.017 414.499 553.607C416.917 552.964 420.05 551.917 422.633 553.247C422.295 554.654 421.302 555.984 420.419 557.003C419.386 558.199 418.38 558.698 417.239 559.819C416.034 561.004 415.353 561.568 414.416 562.987C413.294 564.688 413.441 566.545 414.736 566.545C417.605 566.545 416.671 566.615 417.241 565.732L417.543 565.14C418.807 562.781 420.213 561.659 422.102 559.823L424.936 556.965C427.264 554.493 427.52 553.535 426.885 550.883C423.337 549.227 413.398 551.405 410.115 552.297L398.943 555.315C399.135 554.924 399.177 554.78 399.403 554.286C399.905 553.188 399.855 554.476 399.855 553.247C399.855 550.208 396.895 551.012 395.369 552.43L387.273 559.329C385.632 560.564 380.179 564.773 384.972 564.773Z" fill="white"/>
<path fill-rule="evenodd" clip-rule="evenodd" d="M737.283 563C737.283 560.743 742.84 558.114 744.727 557.239L751.865 554.434C753.757 553.596 761.581 553.055 761.581 555.611C761.581 557.81 755.651 560.549 753.813 561.352C751.133 562.525 737.283 567.962 737.283 563ZM747.306 566.545C752.193 566.545 764.92 561.61 764.92 556.202C764.92 553.942 765.024 553.411 762.723 552.43C759.193 550.927 755.78 551.473 750.95 551.473C746.981 551.473 736.903 556.429 734.197 559.7C727.311 568.02 743.019 566.545 747.306 566.545Z" fill="white"/>
<path fill-rule="evenodd" clip-rule="evenodd" d="M571.757 563C571.757 559.664 586.735 553.839 589.07 553.839C596.004 553.839 592.395 553.696 596.359 554.725C596.359 556.906 596.092 556.78 594.711 557.85C594.081 558.337 594.774 557.854 594.017 558.356C590.279 560.837 582.793 563.974 578.32 564.656C575.891 565.026 571.757 565.646 571.757 563ZM581.476 566.545C585.607 566.545 590.051 564.77 592.7 563.282C596.165 561.338 599.699 559.259 599.699 555.315C599.699 552.589 595.407 551.473 593.321 551.473C585.3 551.473 580.549 551.124 572.799 556.625C569.321 559.093 567.504 559.46 567.504 563.886C567.504 567.432 578.562 566.545 581.476 566.545Z" fill="white"/>
<path fill-rule="evenodd" clip-rule="evenodd" d="M302.664 563C302.664 561.088 306.759 559.17 308.19 558.327C311.311 556.492 314.206 555.766 317.497 554.382C319.242 553.647 327.266 553.158 327.266 555.315C327.266 557.463 325.309 558.135 323.032 559.47C319.651 561.451 315.784 562.973 312.021 564.124C310.647 564.543 302.664 566.454 302.664 563ZM313.599 566.545C317.646 566.545 324.675 563.103 327.785 560.549C330.972 557.936 332.059 554.092 328.366 552.474C324.918 550.964 321.109 551.473 316.636 551.473C312.749 551.473 305.955 555.073 302.84 557.258C294.15 563.354 299.461 566.545 303.575 566.545H313.599Z" fill="white"/>
<rect width="20" height="14" transform="translate(1103 780)" fill="white"/>
</svg>
